# xmcd CD database file
#
# Track frame offsets:
#	150
#	17307
#	36332
#	56757
#	76630
#	91162
#	107210
#	127015
#	138370
#	152957
#	170600
#	182990
#	193867
#	206885
#
# Disc length: 2964 seconds
#
# Revision: 1
# Processed by: cddbd v1.5.1PL2 Copyright (c) Steve Scherf et al.
# Submitted via: CDex 1.51
#
DISCID=c20b920e
DTITLE=Pe Zezinho - Canções em Fé Maior
DYEAR=2000
DGENRE=Christian Rock
TTITLE0=Pelos frutos que me das
TTITLE1=Porque me ouviste
TTITLE2=Navegarei
TTITLE3=Cançao em fe maior
TTITLE4=Orar costuma fazer bem
TTITLE5=Aos tristes e infelizes
TTITLE6=Foi em nome de Jesus
TTITLE7=Pai nosso ecumenico
TTITLE8=Teologia de engraxate
TTITLE9=Oraçao por nossos filhos
TTITLE10=Que bonita religiao
TTITLE11=Prece pelo social
TTITLE12=Deixa o rio correr
TTITLE13=Cantiga franciscana
EXTD=YEAR: 2000
EXTT0=
EXTT1=
EXTT2=
EXTT3=
EXTT4=
EXTT5=
EXTT6=
EXTT7=
EXTT8=
EXTT9=
EXTT10=
EXTT11=
EXTT12=
EXTT13=
PLAYORDER=
